<?xml version="1.0" encoding="utf-8"?>
<!-- Generator: Adobe Illustrator 19.2.1, SVG Export Plug-In . SVG Version: 6.00 Build 0)  -->
<svg version="1.1" id="layer" xmlns="http://www.w3.org/2000/svg" xmlns:xlink="http://www.w3.org/1999/xlink" x="0px" y="0px"
	 viewBox="0 0 652 652" style="enable-background:new 0 0 652 652;" xml:space="preserve">
<style type="text/css">
	.st0{fill:#E4202C;}
	.st1{fill:#FFD200;}
</style>
<path shape-rendering="geometricPrecision" class="st0" d="M427.4,301.5h-23.8v-19.9h23.8L427.4,301.5z M590.7,364.3h25
	c-3.8,22.7-23.2,31-44,31c-15.5,0-27.1-4.2-35-14.6v12.8h-39.5v-13c-5.9,9-13.4,14-25.2,14c-13.1,0-23.2-5-28.9-13.6v12.5h-55V383
	c-5.1,7.6-14.7,11.6-26.5,11.6c-12.8,0-21.4-2.9-30.1-12.2v11h-16.9v-10.1c-4.2,6-10.1,11.3-20.9,11.3c-18.8,0-27-10.2-27-30.7
	v-34.3h-17.8V374h11.2v19.4h-36.3v-15.3c-5,8.9-15.4,16.4-27.6,16.4c-15.2,0-26.8-6.5-26.8-23.2v-41.9h-6.6
	c-3,38.3-29.1,66.7-68.3,66.7c-41.1,0-68.4-31.5-68.4-72.2c0-41.9,25-73.7,68.4-73.7c37.7,0,61,26.7,67.1,59.2h33.3v49.7
	c0,8.6,2.6,15.1,12.2,15.1c11.3,0,16.6-8,16.6-18.4V330h-13.7v-20.3h38.9c19.7,0,23.6-7.1,23.6-22h20v22h25.3v9.8
	c4.4-5.9,13.4-10.2,27.6-10.2c11.8,0,18.5,4.5,23.2,11.1V310h58.8v64h13.4c-2.5-7.3-3.7-15-3.6-22.8c0-23.8,13.2-41.3,37.9-41.3
	c8.9-0.1,17.3,4.4,22.2,11.9v-20.4h-14.9v-19.9h40.2v92.2H534c-2.9-6-4.1-13.7-4.1-22c0-26.7,19.4-43.3,43.4-43.3
	c25.7,0,41.9,17,41.9,44.1v3.5h-58c0.5,16,6.9,21.5,16.1,21.5C583.6,377.7,588.5,373.4,590.7,364.3L590.7,364.3z M557.7,342.8h30.7
	c-0.7-10.7-4.5-16.9-14.9-16.9C565.8,325.9,559.5,330.6,557.7,342.8L557.7,342.8z M123.8,331.4c0-19.6-8.3-60-33.3-60
	c-18.8,0-25.2,25.1-25.2,41.7c0,28.8,12.5,61.5,33,61.3C117.7,374.4,123.8,349.9,123.8,331.4L123.8,331.4z M367.5,372
	c0-15.7-52.3-0.3-52.3-38.4c0-1.4,0-2.7,0.1-4.1h-22.9v37.8c0,5,0.6,11.2,6.8,11.2c6.2,0,6.3-5.1,5.9-14.3h28.5
	c5.6,9,11,14.5,22.9,14.5C361.2,378.6,367.5,377.4,367.5,372L367.5,372z M404.3,329.5h-14.9v6h-21.7c-3.8-7.8-8.6-10.4-16.9-10.4
	c-5.9,0-12.4,0.9-12.4,5.9c0,14.9,52.9,0.2,52.9,36.5c0,2.1-0.1,4.2-0.5,6.3h13.4L404.3,329.5z M497.3,347.2
	c0-9.8-5.3-19.6-15.5-19.6c-13,0-17.2,11.9-17.2,22.7c0,11.1,3,24.9,16.7,24.9c11,0,16-10.1,16-19.7L497.3,347.2z M617.5,386.4h-2
	v5.5h0.9v-2.2h1l1.3,2.2h1l-1.5-2.3c0.7-0.2,1.2-0.8,1.2-1.5C619.4,387.2,618.9,386.4,617.5,386.4L617.5,386.4z M617.6,387.2
	c0.6,0,1,0.3,1,0.9c0,0.7-0.5,0.9-1,0.9h-1.1v-1.8H617.6z M622,389.2c0-2.5-2.1-4.6-4.6-4.6c-2.5,0-4.6,2.1-4.6,4.6s2.1,4.6,4.6,4.6
	l0,0C619.9,393.8,621.9,391.7,622,389.2L622,389.2z M621.5,389.2c0,2.3-1.8,4.1-4.1,4.1s-4.1-1.8-4.1-4.1s1.8-4.1,4.1-4.1
	C619.6,385.1,621.5,386.9,621.5,389.2L621.5,389.2z"/>
<path shape-rendering="geometricPrecision" class="st1" d="M423.5,296.6h-23.8v-19.9h23.8V296.6z M586.8,359.4h25
	c-3.8,22.7-23.2,30.9-44,30.9c-15.5,0-27.1-4.2-35-14.6v12.8h-39.5v-12.9c-5.9,9-13.4,14-25.2,14c-13.1,0-23.2-5-28.9-13.6v12.5h-55
	v-10.4c-5.1,7.6-14.7,11.6-26.5,11.6c-12.8,0-21.4-2.9-30.1-12.2v11h-16.9v-10.1c-4.2,6-10.1,11.3-20.9,11.3
	c-18.8,0-27-10.2-27-30.7v-34.3h-17.7v44.4h11.2v19.4h-36.3v-15.3c-5,8.9-15.4,16.4-27.6,16.4c-15.2,0-26.8-6.5-26.8-23.2v-41.9
	h-6.6c-3,38.3-29.1,66.7-68.3,66.7c-41.1,0-68.4-31.5-68.4-72.2c0-41.9,25-73.7,68.4-73.7c37.7,0,61,26.6,67.1,59.2H191v49.7
	c0,8.6,2.6,15.1,12.2,15.1c11.3,0,16.6-8,16.6-18.4v-26.1H206v-20.3h38.9c19.7,0,23.6-7.1,23.6-22h20v22h25.3v9.8
	c4.4-5.9,13.4-10.2,27.6-10.2c11.8,0,18.5,4.5,23.2,11.1v-10.4h58.8v64h13.4c-2.5-7.3-3.7-15-3.6-22.8c0-23.8,13.3-41.3,38-41.3
	c8.9-0.1,17.3,4.4,22.2,11.9v-20.3h-14.9v-19.9h40.2v92.2h11.4c-2.9-6-4.1-13.7-4.1-22c0-26.7,19.4-43.3,43.4-43.3
	c25.7,0,41.9,17,41.9,44.1v3.5h-58c0.5,16,6.9,21.5,16.1,21.5C579.7,372.9,584.6,368.5,586.8,359.4z M553.8,337.9h30.7
	c-0.7-10.7-4.5-16.9-14.9-16.9C561.9,321.1,555.6,325.8,553.8,337.9L553.8,337.9z M119.8,326.4c0-19.6-8.3-60-33.3-60
	c-18.8,0-25.2,25.1-25.2,41.7c0,28.8,12.5,61.5,33,61.3C113.8,369.5,119.9,345,119.8,326.4z M363.6,367.1c0-15.7-52.3-0.3-52.3-38.4
	c0-1.4,0-2.7,0.1-4.1h-22.9v37.8c0,5,0.6,11.2,6.8,11.2s6.3-5.1,5.9-14.3h28.5c5.6,9,11,14.5,22.9,14.5
	C357.3,373.8,363.6,372.6,363.6,367.1L363.6,367.1z M400.4,324.6h-14.9v6h-21.7c-3.8-7.8-8.6-10.4-16.9-10.4
	c-5.9,0-12.4,0.9-12.4,5.9c0,14.9,52.9,0.2,52.9,36.5c0,2.1-0.1,4.2-0.5,6.3h13.4L400.4,324.6z M493.4,342.3
	c0-9.8-5.3-19.6-15.5-19.6c-13,0-17.2,11.9-17.2,22.7c0,11.1,3,24.9,16.7,24.9c11,0,16-10.1,16-19.7L493.4,342.3z"/>
<path shape-rendering="geometricPrecision" d="M385.2,330.6h-21.3c-3.7-7.6-8.3-10.4-17-10.4c-8.5,0-12.6,2-12.6,6.1
	c0,6,8.4,7.4,18.1,8.9c15.5,2.5,34.8,5.6,34.8,27.5c0,2.1-0.1,4.2-0.5,6.3l0,0.3h14v-44.8h-15.4V330.6z M385.7,325.1h14.4v43.8
	h-12.9c0.3-2,0.4-4,0.4-6.1c0-22.3-19.5-25.5-35.2-28c-9.9-1.6-17.7-2.8-17.7-8.5c0-3.8,4-5.6,12.1-5.6c8.5,0,13,2.8,16.6,10.3
	l0.1,0.1h22.1V325.1z M611.6,359.2h-24.9c-2.2,9.6-7.3,13.6-17.2,13.6c-10.2,0-15.4-6.9-15.9-21.1h58V348
	c0-27.4-16.1-44.4-42.1-44.4c-12,0-22.9,4.1-30.8,11.7c-8.4,8-12.8,19-12.8,31.8c0,8.8,1.3,16.1,3.9,21.7h-10.9v-92.2h-40.7V297
	h14.9v19.3c-4.9-7.1-13-11.3-21.6-11.3h-0.3c-11.9,0-21.7,4.1-28.4,11.8c-6.4,7.3-9.8,17.6-9.8,29.7c-0.1,7.6,1.1,15.3,3.5,22.5
	h-12.8v-64h-59.3v9.9c-5.4-7.3-12.7-10.6-23-10.6c-12.6,0-22.2,3.4-27.3,9.8v-9.3h-25.3v-22h-20.5v0.2c0,14.4-3.6,21.7-23.4,21.7
	h-39.1v20.8h13.7v25.8c0,11.4-6.1,18.1-16.3,18.1c-8.2,0-12-4.7-12-14.8v-50h-33.4c-3.1-16.8-10.6-31.3-21.7-41.8
	c-12-11.4-27.8-17.5-45.6-17.5c-20.9,0-38.4,7.3-50.7,21.2c-11.8,13.3-18,31.5-18,52.7c0,20.1,6.7,38.3,18.8,51.5
	c12.4,13.5,30.1,20.9,49.8,20.9c37.8,0,65.3-26.8,68.5-66.7h6.2v41.6c0,15.1,9.6,23.4,27.1,23.4c11,0,21.6-6.2,27.3-15.8v14.6h36.8
	V369h-11.2v-43.9h17.3v34.2c0,21.1,8.6,31,27.2,31c11.2,0,17-5.6,20.7-10.8v9.5h17.4v-10.6c8.2,8.6,16.4,11.8,29.9,11.8
	c11.6,0,21.1-4,26.3-11.1v9.8h55.5V377c6,8.4,16.1,13,28.7,13c10.9,0,18.6-4.2,24.9-13.4v12.4h40v-12.4c7.6,9.6,18.6,14.1,34.7,14.1
	c25.1,0,41.1-11.5,44.3-31.6L611.6,359.2L611.6,359.2z M567.8,390.2c-16.3,0-27.3-4.6-34.8-14.5l-0.4-0.6v13.3h-38.9v-13.5l-0.5,0.7
	c-6.2,9.6-13.9,13.9-25,13.9c-12.7,0-22.9-4.8-28.7-13.4l-0.4-0.7v13h-54.5v-10.9l-0.4,0.7c-5,7.3-14.6,11.4-26.3,11.4
	c-13.6,0-21.7-3.3-29.9-12.1l-0.4-0.5v11.4H311v-10.6l-0.4,0.6c-3.7,5.2-9.3,11.2-20.8,11.2c-18.2,0-26.7-9.7-26.7-30.5v-34.6h-18.3
	v44.9H256v18.9h-35.8v-15.9l-0.5,0.8c-5.5,9.9-16.3,16.3-27.4,16.3c-17.2,0-26.6-8.2-26.6-23v-42.1h-7.1v0.2
	c-3.1,39.8-30.5,66.5-68,66.5c-19.8,0-36.9-7.2-49.4-20.7c-12.1-13.1-18.7-31.2-18.7-51.2c0-21.1,6.2-39.2,17.9-52.4
	c12.2-13.8,29.6-21,50.3-21c17.6,0,33.3,6,45.2,17.3c11,10.5,18.5,24.9,21.6,41.7l0,0.2h33.3v49.4c0,10.4,4,15.3,12.4,15.3
	c10.5,0,16.8-7,16.8-18.6V325h-13.7v-19.8h38.6c20.1,0,23.9-7.4,23.9-22h19.5v22h25.3v10.3l0.4-0.6c4.9-6.5,14.6-10.1,27.4-10.1
	c10.4,0,17.7,3.5,23,11l0.4,0.6v-11h58.3v64h14l-0.1-0.3c-2.5-7.3-3.7-15-3.6-22.7c0-25.3,14.5-41,37.8-41h0.3
	c8.8,0,16.9,4.4,21.7,11.8l0.5,0.7v-21.4h-15v-19.4h39.7v92.2h12.1l-0.2-0.4c-2.7-5.7-4-13-4-21.9c0-12.7,4.4-23.6,12.6-31.4
	c7.8-7.4,18.7-11.5,30.5-11.5c25.7,0,41.6,16.8,41.6,43.9v3.2h-58v0.3c0.4,14.5,5.9,21.8,16.4,21.8c10.1,0,15.2-4,17.6-13.6h24.5
	C608.2,379.1,592.3,390.2,567.8,390.2z M86.5,266.4c-20.1,0-25.4,27.5-25.4,42c0,22.1,7.1,44.1,17.7,54.5c4.7,4.6,9.9,7,15.4,7h0.1
	c19,0,25.7-23.3,25.7-43.3C120.1,307,111.9,266.4,86.5,266.4z M119.6,326.6c0,19.8-6.6,42.8-25.2,42.8c0,0-0.1,0-0.1,0
	c-5.4,0-10.5-2.3-15.1-6.9c-10.5-10.4-17.5-32.2-17.5-54.2c0-14.3,5.2-41.5,24.9-41.5c13.6,0,21.6,12.2,25.8,22.5
	C117.7,302.3,119.6,317.5,119.6,326.6z M423.7,276.6h-24.3V297h24.3V276.6z M423.2,296.5h-23.3v-19.4h23.3V296.5z M584.7,338
	c-0.8-11.8-5.5-17.1-15.2-17.1c-6.2,0-14,3-16.1,17.1l0,0.3h31.3L584.7,338z M554,337.8c2.1-13.5,9.6-16.4,15.5-16.4
	c9.4,0,13.8,4.9,14.6,16.4H554z M345.9,357.8c-15.3-2.7-34.4-6-34.4-29c0-1.3,0-2.7,0.1-4v-0.3h-23.4v38.1c0,3.4,0,11.4,7,11.4
	c2,0,3.4-0.5,4.4-1.5c2.1-2.2,2.1-6.7,1.8-12.8h28c3.2,5.2,6,8.4,9.1,10.6c3.8,2.7,8.2,3.9,14,3.9c3.4,0,11.2-0.7,11.2-6.9
	C363.9,360.9,355.5,359.5,345.9,357.8z M352.6,373.6c-11.6,0-16.9-5.1-22.7-14.4l-0.1-0.1H301v0.3c0.3,6.1,0.4,10.6-1.6,12.7
	c-0.9,0.9-2.2,1.4-4,1.4c-5.8,0-6.5-5.5-6.5-10.9V325h22.4c-0.1,1.3-0.2,2.6-0.1,3.8c0,23.4,19.3,26.8,34.8,29.5
	c9.8,1.7,17.5,3,17.5,8.9C363.3,373,355.8,373.6,352.6,373.6L352.6,373.6z M477.8,322.6c-6,0-10.6,2.5-13.7,7.4
	c-2.4,3.9-3.8,9.5-3.8,15.6c0,9.4,2.2,25.1,17,25.1c11.1,0,16.2-10.3,16.2-20v-8.3C493.6,332.6,488.2,322.6,477.8,322.6z
	 M493.1,350.7c0,9.4-4.9,19.5-15.7,19.5c-14.3,0-16.5-15.4-16.5-24.6c0-20.9,13-22.5,16.9-22.5c10,0,15.3,9.7,15.3,19.3L493.1,350.7
	z"/>
</svg>
